HIERARCHY
ROOT Hips
{
 OFFSET 0.000000 0.000000 0.000000
 CHANNELS 6 Xposition Yposition Zposition Yrotation Xrotation Zrotation
 JOINT Chest
 {
  OFFSET 0.000000 10.385163 0.011643
  CHANNELS 3 Yrotation Xrotation Zrotation
  JOINT Chest2
  {
   OFFSET 0.000000 11.579334 -0.021150
   CHANNELS 3 Yrotation Xrotation Zrotation
   JOINT Chest3
   {
    OFFSET 0.000000 10.463212 0.000000
    CHANNELS 3 Yrotation Xrotation Zrotation
    JOINT Chest4
    {
     OFFSET 0.000000 10.463212 0.000000
     CHANNELS 3 Yrotation Xrotation Zrotation
     JOINT Neck
     {
      OFFSET 0.000000 14.544862 0.000000
      CHANNELS 3 Yrotation Xrotation Zrotation
      JOINT Head
      {
       OFFSET 0.000000 9.730630 -0.050295
       CHANNELS 3 Yrotation Xrotation Zrotation
       End Site
       {
        OFFSET 0.000000 18.757589 -0.026270
       }
      }
     }
     JOINT RightCollar
     {
      OFFSET -2.985174 8.102313 0.000000
      CHANNELS 3 Yrotation Xrotation Zrotation
      JOINT RightShoulder
      {
       OFFSET -13.558590 0.000000 0.000000
       CHANNELS 3 Yrotation Xrotation Zrotation
       JOINT RightElbow
       {
        OFFSET -28.208579 0.000000 0.000000
        CHANNELS 3 Yrotation Xrotation Zrotation
        JOINT RightWrist
        {
         OFFSET -23.322907 0.000000 0.010349
         CHANNELS 3 Yrotation Xrotation Zrotation
         End Site
         {
          OFFSET -17.603338 0.000000 0.000000
         }
        }
       }
      }
     }
     JOINT LeftCollar
     {
      OFFSET 2.985174 8.102313 0.000000
      CHANNELS 3 Yrotation Xrotation Zrotation
      JOINT LeftShoulder
      {
       OFFSET 13.558590 0.000000 0.000000
       CHANNELS 3 Yrotation Xrotation Zrotation
       JOINT LeftElbow
       {
        OFFSET 28.208579 0.000000 0.000000
        CHANNELS 3 Yrotation Xrotation Zrotation
        JOINT LeftWrist
        {
         OFFSET 23.322907 0.000000 0.010349
         CHANNELS 3 Yrotation Xrotation Zrotation
         End Site
         {
          OFFSET 17.603338 0.000000 0.000000
         }
        }
       }
      }
     }
    }
   }
  }
 }
 JOINT RightHip
 {
  OFFSET -8.341224 -0.057053 -0.005822
  CHANNELS 3 Yrotation Xrotation Zrotation
  JOINT RightKnee
  {
   OFFSET 0.000000 -44.280013 0.005508
   CHANNELS 3 Yrotation Xrotation Zrotation
   JOINT RightAnkle
   {
    OFFSET 0.000000 -43.261728 0.009315
    CHANNELS 3 Yrotation Xrotation Zrotation
    JOINT RightToe
    {
     OFFSET 0.000000 -8.082955 18.257715
     CHANNELS 3 Yrotation Xrotation Zrotation
     End Site
     {
      OFFSET 0.000000 -1.634678 7.189621
     }
    }
   }
  }
 }
 JOINT LeftHip
 {
  OFFSET 8.341224 -0.057053 -0.005822
  CHANNELS 3 Yrotation Xrotation Zrotation
  JOINT LeftKnee
  {
   OFFSET 0.000000 -44.280013 0.005508
   CHANNELS 3 Yrotation Xrotation Zrotation
   JOINT LeftAnkle
   {
    OFFSET 0.000000 -43.261728 0.009315
    CHANNELS 3 Yrotation Xrotation Zrotation
    JOINT LeftToe
    {
     OFFSET 0.000000 -8.082955 18.257715
     CHANNELS 3 Yrotation Xrotation Zrotation
     End Site
     {
      OFFSET 0.000000 -1.634678 7.189621
     }
    }
   }
  }
 }
}
MOTION
Frames: 14
Frame Time: 0.016667
0.000000 95.489079 0.000000 0.000000 -5.826342 0.000000 0.000000 11.116423 0.000000 0.000000 -5.290081 0.000000 0.000000 0.000000 0.000000 0.000000 0.000000 0.000000 0.000000 12.665069 0.000000 0.000000 0.575450 0.000000 0.000000 0.000000 0.000000 0.000000 0.000000 0.000000 2.337306 0.000000 0.000000 -2.337306 0.000000 0.000000 0.000000 0.000000 0.000000 0.000000 0.000000 0.000000 -2.337306 0.000000 0.000000 2.337306 0.000000 0.000000 0.000000 8.578828 0.000000 0.000000 1.905768 0.000000 0.000000 -4.658254 0.000000 0.000000 0.000000 0.000000 0.000000 8.578828 0.000000 0.000000 1.905768 0.000000 0.000000 -4.658254 0.000000 0.000000 0.000000 0.000000
-129.241836 97.389472 -237.095188 9.109722 -19.187914 -0.525409 0.264570 10.762065 3.843019 0.027547 4.785198 1.694070 0.027548 4.785198 1.694070 0.007357 3.589008 1.269597 0.071863 12.549425 -1.991237 0.971134 -12.850554 -3.823264 1.713842 -3.334896 3.587278 -6.895645 -9.492301 76.214520 -0.546047 21.615591 -3.479908 2.417500 2.646851 0.626285 0.433395 -4.357357 -15.523486 2.044027 -6.647875 -76.296385 -3.003279 23.122961 -2.246416 3.320924 -1.202700 -1.514538 -6.585940 23.930526 -0.882512 -1.526387 -1.913563 0.235205 -10.679519 -4.152605 2.526256 0.000000 -0.000000 -0.000000 4.201935 25.158303 3.566233 0.890097 -2.527986 0.187991 5.448490 -4.477188 -3.478814 0.000000 0.000000 0.000000
-129.252983 97.387004 -237.154777 9.118130 -18.981145 -0.497819 0.260270 10.656326 3.831009 0.026819 4.738164 1.689069 0.026819 4.738164 1.689069 0.006981 3.553729 1.265871 0.059062 12.579147 -2.000537 0.949613 -12.795548 -3.834759 1.715588 -3.272128 3.594337 -6.908002 -9.529935 76.231076 -0.557907 21.589747 -3.489361 2.402665 2.646450 0.617230 0.437832 -4.282931 -15.429954 1.986281 -6.637179 -76.398471 -3.090175 23.046738 -2.279487 3.297027 -1.216813 -1.518776 -6.510147 23.658450 -0.879992 -1.673015 -1.849461 0.330860 -10.618476 -4.168829 2.464272 -0.000000 0.000000 -0.000000 4.105284 24.861877 3.453860 0.964222 -2.422155 0.252947 5.430207 -4.499754 -3.514250 0.000000 -0.000000 -0.000000
-129.264842 97.385656 -237.209389 9.126000 -18.791439 -0.473537 0.257947 10.560716 3.821494 0.026817 4.695648 1.685104 0.026817 4.695648 1.685104 0.007128 3.521842 1.262913 0.045767 12.606889 -2.011301 0.927834 -12.744194 -3.848897 1.715680 -3.214565 3.599080 -6.916088 -9.561662 76.248320 -0.579712 21.570572 -3.504162 2.387332 2.646530 0.612669 0.460080 -4.187692 -15.335432 1.902837 -6.651863 -76.498999 -3.165416 22.981265 -2.310249 3.277441 -1.225156 -1.529605 -6.442433 23.410230 -0.879265 -1.807088 -1.794526 0.415587 -10.560978 -4.179186 2.411892 -0.000000 0.000000 -0.000000 4.030632 24.588385 3.359580 1.023503 -2.323107 0.311906 5.409761 -4.521813 -3.545614 0.000000 0.000000 0.000000
-129.277733 97.386019 -237.257136 9.134521 -18.625397 -0.454013 0.258321 10.479932 3.815612 0.027797 4.659745 1.682652 0.027797 4.659745 1.682652 0.007982 3.494917 1.261080 0.032066 12.632417 -2.024971 0.906570 -12.696885 -3.868466 1.713176 -3.163854 3.599409 -6.915741 -9.584857 76.267504 -0.616242 21.564121 -3.526337 2.371340 2.646815 0.615289 0.509081 -4.047840 -15.236078 1.766737 -6.718117 -76.601807 -3.219734 22.929982 -2.336826 3.265645 -1.223627 -1.554151 -6.386188 23.195765 -0.881410 -1.926342 -1.754109 0.484498 -10.506886 -4.179369 2.374890 0.000000 -0.000000 0.000000 3.992681 24.345561 3.292176 1.057501 -2.231503 0.363406 5.383153 -4.544232 -3.570639 0.000000 0.000000 0.000000
-129.291336 97.387502 -237.299907 9.142448 -18.476415 -0.437786 0.260651 10.409279 3.812203 0.029499 4.628362 1.681229 0.029499 4.628362 1.681229 0.009356 3.471384 1.260011 0.017868 12.655965 -2.040095 0.885035 -12.653227 -3.890655 1.709009 -3.118347 3.597422 -6.911114 -9.602151 76.287355 -0.662736 21.564302 -3.553854 2.354847 2.647591 0.622417 0.576055 -3.887294 -15.135525 1.605131 -6.809994 -76.702671 -3.262438 22.889447 -2.361200 3.258149 -1.216346 -1.585299 -6.337880 23.005155 -0.884948 -2.033069 -1.722934 0.542615 -10.456369 -4.173718 2.347507 -0.000000 -0.000000 0.000000 3.976145 24.125859 3.242018 1.076623 -2.146642 0.408816 5.354375 -4.566148 -3.591588 0.000000 0.000000 0.000000
-129.305396 97.389448 -237.338388 9.145485 -18.341746 -0.423815 0.264685 10.344802 3.810314 0.031868 4.599739 1.680429 0.031868 4.599739 1.680429 0.011217 3.449922 1.259403 0.002422 12.676263 -2.053788 0.860642 -12.615688 -3.909696 1.704340 -3.078310 3.597084 -6.910409 -9.615515 76.304773 -0.714821 21.559562 -3.585969 2.337820 2.650196 0.630517 0.652042 -3.756795 -15.044056 1.473549 -6.874242 -76.788359 -3.309793 22.860088 -2.387063 3.248846 -1.209878 -1.608300 -6.294892 22.832542 -0.886926 -2.121582 -1.694442 0.594167 -10.413467 -4.169416 2.322061 -0.000000 0.000000 -0.000000 3.957129 23.929506 3.198555 1.097205 -2.073168 0.446188 5.333223 -4.584450 -3.611187 -0.000000 -0.000000 0.000000
-129.320078 97.391747 -237.371917 9.142264 -18.222392 -0.412481 0.270366 10.285852 3.809815 0.034889 4.573585 1.680196 0.034889 4.573585 1.680196 0.013555 3.430316 1.259216 -0.014951 12.692009 -2.064849 0.831645 -12.586738 -3.923060 1.699052 -3.044590 3.600164 -6.914914 -9.624839 76.318220 -0.775147 21.544221 -3.624643 2.319128 2.656890 0.640776 0.739985 -3.677690 -14.965374 1.387977 -6.888704 -76.855495 -3.366272 22.848628 -2.412350 3.236336 -1.203926 -1.617249 -6.256508 22.678420 -0.885207 -2.187795 -1.666366 0.639595 -10.381247 -4.169528 2.295903 0.000000 0.000000 0.000000 3.923342 23.761049 3.158864 1.126230 -2.016285 0.472800 5.325697 -4.596620 -3.630527 -0.000000 -0.000000 0.000000
-129.335219 97.394508 -237.401156 9.134138 -18.117347 -0.403431 0.277740 10.233077 3.810842 0.038574 4.550191 1.680591 0.038574 4.550191 1.680591 0.016379 3.412780 1.259492 -0.033567 12.704502 -2.074482 0.799806 -12.563910 -3.933287 1.693266 -3.016341 3.604885 -6.923348 -9.630229 76.329247 -0.841024 21.523928 -3.667893 2.299895 2.665425 0.651980 0.836738 -3.628613 -14.895885 1.332308 -6.875149 -76.907861 -3.427422 22.848307 -2.439227 3.222034 -1.198779 -1.618061 -6.223385 22.542286 -0.881720 -2.235796 -1.641042 0.678527 -10.356635 -4.171005 2.271679 -0.000000 0.000000 -0.000000 3.887000 23.615916 3.125964 1.156677 -1.970761 0.491332 5.325788 -4.605162 -3.648522 0.000000 -0.000000 -0.000000
-129.350069 97.397401 -237.428778 9.120918 -18.020858 -0.394536 0.286709 10.184469 3.812854 0.042908 4.528663 1.681380 0.042908 4.528663 1.681380 0.019682 3.396645 1.260059 -0.052129 12.716368 -2.083410 0.767800 -12.542262 -3.942216 1.688504 -2.991281 3.609888 -6.940068 -9.633977 76.339396 -0.900047 21.504165 -3.709079 2.283467 2.670349 0.656999 0.924080 -3.596139 -14.835079 1.313825 -6.845950 -76.943315 -3.496063 22.839305 -2.477698 3.204086 -1.201884 -1.613718 -6.194981 22.416782 -0.879669 -2.272162 -1.618805 0.713947 -10.334456 -4.171848 2.249646 -0.000000 -0.000000 -0.000000 3.861103 23.480624 3.098416 1.183879 -1.925596 0.507966 5.325273 -4.614494 -3.664647 0.000000 0.000000 -0.000000
-129.364298 97.400410 -237.456051 9.101577 -17.930460 -0.384529 0.297264 10.139057 3.815338 0.047907 4.508568 1.682337 0.047907 4.508568 1.682337 0.023478 3.381588 1.260747 -0.071146 12.728514 -2.091598 0.734615 -12.520131 -3.949546 1.685315 -2.968781 3.614966 -6.971633 -9.636834 76.350661 -0.946837 21.485451 -3.746940 2.272374 2.667583 0.649152 0.996826 -3.578727 -14.783646 1.347845 -6.801883 -76.958330 -3.583466 22.804216 -2.540446 3.178891 -1.221373 -1.601022 -6.172839 22.299122 -0.881748 -2.295042 -1.600793 0.747558 -10.314519 -4.171326 2.230123 -0.000000 -0.000000 0.000000 3.854614 23.349133 3.077054 1.203301 -1.875721 0.524146 5.320818 -4.626866 -3.678184 -0.000000 0.000000 -0.000000
-129.378238 97.403550 -237.481707 9.077145 -17.848616 -0.374697 0.309413 10.097812 3.818810 0.053556 4.490339 1.683692 0.053556 4.490339 1.683692 0.027753 3.367932 1.261727 -0.090110 12.740031 -2.099081 0.701263 -12.499183 -3.955579 1.683149 -2.949470 3.620326 -7.011485 -9.638053 76.361054 -0.986769 21.467297 -3.782763 2.264105 2.661175 0.635139 1.060121 -3.577840 -14.740990 1.419012 -6.742063 -76.956279 -3.678148 22.760357 -2.614836 3.149998 -1.249101 -1.583217 -6.155368 22.192094 -0.885143 -2.306291 -1.585883 0.777685 -10.297015 -4.170173 2.212791 -0.000000 -0.000000 -0.000000 3.858477 23.227506 3.060884 1.219479 -1.826205 0.538422 5.315758 -4.640030 -3.689850 -0.000000 0.000000 -0.000000
-129.392137 97.406537 -237.504607 9.050517 -17.776962 -0.366739 0.323081 10.061640 3.824267 0.059793 4.474378 1.685883 0.059793 4.474378 1.685883 0.032457 3.355979 1.263330 -0.106201 12.750826 -2.106678 0.673448 -12.479476 -3.963048 1.681875 -2.932959 3.625235 -7.044300 -9.637690 76.366147 -1.023609 21.453697 -3.813741 2.254424 2.657867 0.627903 1.111287 -3.584545 -14.704643 1.488653 -6.676456 -76.945435 -3.748997 22.740096 -2.672829 3.126365 -1.268130 -1.572911 -6.137342 22.096715 -0.884858 -2.318031 -1.570998 0.802208 -10.277340 -4.168581 2.196958 -0.000000 0.000000 -0.000000 3.858693 23.120414 3.045736 1.241370 -1.781263 0.552661 5.311876 -4.651653 -3.701272 0.000000 0.000000 0.000000
-129.406144 97.409366 -237.523942 9.021274 -17.717993 -0.361620 0.339301 10.031812 3.832643 0.067043 4.461260 1.689300 0.067043 4.461260 1.689300 0.037904 3.346160 1.265844 -0.118975 12.760501 -2.114818 0.652205 -12.461723 -3.972961 1.681958 -2.919792 3.629583 -7.063746 -9.634179 76.361718 -1.057586 21.447693 -3.836419 2.240799 2.661412 0.635507 1.149076 -3.598848 -14.675099 1.544447 -6.604927 -76.924611 -3.790244 22.763418 -2.709433 3.110752 -1.270912 -1.575018 -6.120477 22.015527 -0.879688 -2.333489 -1.555484 0.819204 -10.250469 -4.165918 2.182387 0.000000 0.000000 0.000000 3.849292 23.032362 3.029757 1.274704 -1.743554 0.568423 5.309913 -4.659747 -3.713524 0.000000 -0.000000 -0.000000
